<svg width="178" height="49" viewBox="0 0 178 49" fill="none" xmlns="http://www.w3.org/2000/svg">
<path d="M1 47L28 7M28 7V47M28 7L38 27.5V7L48 27.5V7L58 27" stroke="#21A39B" stroke-linecap="round" stroke-linejoin="round"/>
<path d="M53 17H47.6842M15 27C20.1385 27 28.2105 27 28.2105 27" stroke="#21A39B"/>
<path d="M45 35C45 31.134 41.866 28 38 28C34.134 28 31 31.134 31 35" stroke="#21A39B" stroke-linecap="round"/>
<path d="M31 40C31 43.866 34.134 47 38 47C41.866 47 45 44.866 45 41V39L43 38.5" stroke="#21A39B" stroke-linecap="round" stroke-linejoin="round"/>
<path d="M31.14 34.52C30.8749 34.4427 30.5973 34.5949 30.52 34.86C30.4427 35.1251 30.5949 35.4027 30.86 35.48L31.14 34.52ZM30.86 35.48L42.86 38.98L43.14 38.02L31.14 34.52L30.86 35.48Z" fill="#21A39B"/>
<path d="M58 27V47" stroke="#21A39B" stroke-linecap="round"/>
<path d="M48 28V47" stroke="#21A39B" stroke-linecap="round"/>
<line x1="48" y1="36.5" x2="58" y2="36.5" stroke="#21A39B"/>
<path d="M76.68 18.46H76.44C76.2267 18.9133 76.0067 19.3533 75.78 19.78C75.5667 20.2067 75.3667 20.6133 75.18 21C75.0733 21.2133 74.94 21.5067 74.78 21.88C74.62 22.2533 74.5 22.5533 74.42 22.78C74.38 22.8867 74.28 22.9667 74.12 23.02C73.96 23.0867 73.7933 23.12 73.62 23.12C73.46 23.12 73.32 23.0933 73.2 23.04C73.08 22.9867 73.02 22.9067 73.02 22.8C73.02 22.7067 73.0467 22.6267 73.1 22.56C73.1533 22.48 73.2067 22.3867 73.26 22.28C73.3267 22.1733 73.4267 22 73.56 21.76C73.6933 21.5067 73.8867 21.1333 74.14 20.64C74.3933 20.1467 74.7467 19.46 75.2 18.58C75.16 18.58 75.12 18.5867 75.08 18.6C75.0533 18.6 75.0267 18.6 75 18.6H74.98C74.8333 18.6 74.6933 18.5 74.56 18.3C74.4267 18.0867 74.36 17.8933 74.36 17.72C74.36 17.5733 74.4267 17.5 74.56 17.5H74.6C74.72 17.5133 74.84 17.5267 74.96 17.54C75.08 17.54 75.2067 17.54 75.34 17.54H75.7C76.1667 16.62 76.6267 15.6867 77.08 14.74C77.5467 13.78 77.9733 12.88 78.36 12.04C78.7467 11.2 79.0533 10.5067 79.28 9.96C79.3333 9.82667 79.38 9.64 79.42 9.4C79.46 9.14667 79.5267 8.98 79.62 8.9C79.7133 8.83333 79.8133 8.8 79.92 8.8C80.1067 8.8 80.3 8.86 80.5 8.98C80.7 9.08667 80.8267 9.20667 80.88 9.34C80.9067 9.38 80.92 9.42667 80.92 9.48C80.92 9.52 80.92 9.56 80.92 9.6V9.74C80.92 9.78 80.9333 9.85333 80.96 9.96C81.3467 10.9867 81.7933 12.1133 82.3 13.34C82.82 14.5533 83.36 15.78 83.92 17.02C84.48 18.26 85.02 19.4267 85.54 20.52C85.6467 20.7333 85.8133 21.04 86.04 21.44C86.2667 21.84 86.4867 22.1933 86.7 22.5C86.7267 22.54 86.7467 22.58 86.76 22.62C86.7733 22.6467 86.78 22.6733 86.78 22.7C86.78 22.8333 86.68 22.94 86.48 23.02C86.2933 23.1 86.1 23.14 85.9 23.14C85.7667 23.14 85.6467 23.12 85.54 23.08C85.4333 23.0533 85.3667 23 85.34 22.92C85.26 22.68 85.14 22.3667 84.98 21.98C84.8333 21.58 84.7067 21.26 84.6 21.02C84.4 20.5933 84.1933 20.14 83.98 19.66C83.7667 19.18 83.5467 18.6933 83.32 18.2L76.68 18.46ZM80.12 10.6C79.92 11.0933 79.6467 11.7133 79.3 12.46C78.9533 13.2067 78.5733 14.02 78.16 14.9C77.7467 15.7667 77.3267 16.64 76.9 17.52C76.9 17.52 77.04 17.5133 77.32 17.5C77.6133 17.4867 77.9867 17.4733 78.44 17.46C78.9067 17.4333 79.3933 17.4133 79.9 17.4C80.4067 17.3733 80.8867 17.3533 81.34 17.34C81.8067 17.3133 82.18 17.2933 82.46 17.28C82.7533 17.2667 82.9 17.26 82.9 17.26C82.5267 16.3933 82.16 15.54 81.8 14.7C81.44 13.8467 81.1133 13.0667 80.82 12.36C80.5267 11.6533 80.2933 11.0667 80.12 10.6ZM95.6086 17.12C95.6086 16.5867 95.5553 16.1133 95.4486 15.7C95.3553 15.2867 95.1753 14.96 94.9086 14.72C94.6553 14.48 94.2753 14.36 93.7686 14.36C93.3019 14.36 92.8219 14.46 92.3286 14.66C91.8353 14.86 91.3886 15.1733 90.9886 15.6C90.5886 16.0133 90.2886 16.56 90.0886 17.24C89.9286 17.7733 89.8353 18.3733 89.8086 19.04C89.7953 19.6933 89.7819 20.3133 89.7686 20.9V21.18C89.7686 21.5533 89.7753 21.9067 89.7886 22.24C89.8153 22.56 89.8286 22.82 89.8286 23.02C89.8286 23.14 89.7286 23.2 89.5286 23.2C89.3553 23.2 89.1619 23.1467 88.9486 23.04C88.7486 22.9467 88.6486 22.82 88.6486 22.66C88.6486 22.5533 88.6486 22.38 88.6486 22.14C88.6619 21.8867 88.6686 21.64 88.6686 21.4C88.6819 21.16 88.6886 20.9933 88.6886 20.9V15.7C88.6886 15.5667 88.6819 15.36 88.6686 15.08C88.6553 14.8 88.6419 14.5133 88.6286 14.22C88.6286 13.9267 88.6286 13.7067 88.6286 13.56C88.6286 13.44 88.7286 13.38 88.9286 13.38C89.1153 13.38 89.3086 13.4333 89.5086 13.54C89.7086 13.6333 89.8086 13.76 89.8086 13.92C89.8086 14.0267 89.8086 14.2 89.8086 14.44C89.8086 14.6667 89.8019 14.9067 89.7886 15.16C89.7886 15.4133 89.7886 15.6333 89.7886 15.82C90.0553 15.2733 90.4019 14.82 90.8286 14.46C91.2686 14.0867 91.7419 13.8067 92.2486 13.62C92.7686 13.42 93.2753 13.32 93.7686 13.32C94.4086 13.32 94.9219 13.44 95.3086 13.68C95.6953 13.9067 95.9886 14.2067 96.1886 14.58C96.3886 14.9533 96.5219 15.36 96.5886 15.8C96.6553 16.2267 96.6886 16.64 96.6886 17.04V20.9C96.6886 20.98 96.6953 21.16 96.7086 21.44C96.7219 21.72 96.7286 22.0133 96.7286 22.32C96.7419 22.6267 96.7486 22.86 96.7486 23.02C96.7486 23.14 96.6486 23.2 96.4486 23.2C96.2753 23.2 96.0819 23.1467 95.8686 23.04C95.6686 22.9467 95.5686 22.82 95.5686 22.66C95.5686 22.5533 95.5686 22.3933 95.5686 22.18C95.5819 21.9533 95.5886 21.72 95.5886 21.48C95.6019 21.24 95.6086 21.0467 95.6086 20.9V17.12ZM107.366 17.12C107.366 16.5867 107.313 16.1133 107.206 15.7C107.113 15.2867 106.933 14.96 106.666 14.72C106.413 14.48 106.033 14.36 105.526 14.36C105.06 14.36 104.58 14.46 104.086 14.66C103.593 14.86 103.146 15.1733 102.746 15.6C102.346 16.0133 102.046 16.56 101.846 17.24C101.686 17.7733 101.593 18.3733 101.566 19.04C101.553 19.6933 101.54 20.3133 101.526 20.9V21.18C101.526 21.5533 101.533 21.9067 101.546 22.24C101.573 22.56 101.586 22.82 101.586 23.02C101.586 23.14 101.486 23.2 101.286 23.2C101.113 23.2 100.92 23.1467 100.706 23.04C100.506 22.9467 100.406 22.82 100.406 22.66C100.406 22.5533 100.406 22.38 100.406 22.14C100.42 21.8867 100.426 21.64 100.426 21.4C100.44 21.16 100.446 20.9933 100.446 20.9V15.7C100.446 15.5667 100.44 15.36 100.426 15.08C100.413 14.8 100.4 14.5133 100.386 14.22C100.386 13.9267 100.386 13.7067 100.386 13.56C100.386 13.44 100.486 13.38 100.686 13.38C100.873 13.38 101.066 13.4333 101.266 13.54C101.466 13.6333 101.566 13.76 101.566 13.92C101.566 14.0267 101.566 14.2 101.566 14.44C101.566 14.6667 101.56 14.9067 101.546 15.16C101.546 15.4133 101.546 15.6333 101.546 15.82C101.813 15.2733 102.16 14.82 102.586 14.46C103.026 14.0867 103.5 13.8067 104.006 13.62C104.526 13.42 105.033 13.32 105.526 13.32C106.166 13.32 106.68 13.44 107.066 13.68C107.453 13.9067 107.746 14.2067 107.946 14.58C108.146 14.9533 108.28 15.36 108.346 15.8C108.413 16.2267 108.446 16.64 108.446 17.04V20.9C108.446 20.98 108.453 21.16 108.466 21.44C108.48 21.72 108.486 22.0133 108.486 22.32C108.5 22.6267 108.506 22.86 108.506 23.02C108.506 23.14 108.406 23.2 108.206 23.2C108.033 23.2 107.84 23.1467 107.626 23.04C107.426 22.9467 107.326 22.82 107.326 22.66C107.326 22.5533 107.326 22.3933 107.326 22.18C107.34 21.9533 107.346 21.72 107.346 21.48C107.36 21.24 107.366 21.0467 107.366 20.9V17.12ZM120.064 13.86C120.024 14.1533 119.984 14.5467 119.944 15.04C119.918 15.52 119.891 16.0333 119.864 16.58C119.851 17.1133 119.838 17.6133 119.824 18.08C119.811 18.5467 119.804 18.9 119.804 19.14C119.804 19.3133 119.811 19.5867 119.824 19.96C119.851 20.32 119.911 20.7133 120.004 21.14C120.111 21.5667 120.278 21.96 120.504 22.32C120.531 22.3733 120.544 22.42 120.544 22.46C120.544 22.6067 120.471 22.7733 120.324 22.96C120.191 23.1333 120.031 23.22 119.844 23.22C119.711 23.22 119.578 23.1267 119.444 22.94C119.324 22.74 119.211 22.4933 119.104 22.2C119.011 21.8933 118.931 21.5867 118.864 21.28C118.798 20.9733 118.758 20.7067 118.744 20.48C118.264 21.4533 117.651 22.1733 116.904 22.64C116.171 23.0933 115.424 23.32 114.664 23.32C113.704 23.32 112.931 23 112.344 22.36C111.771 21.7067 111.484 20.7533 111.484 19.5C111.484 18.66 111.624 17.8667 111.904 17.12C112.198 16.3733 112.578 15.7133 113.044 15.14C113.524 14.5667 114.051 14.12 114.624 13.8C115.211 13.48 115.798 13.32 116.384 13.32C116.878 13.32 117.344 13.44 117.784 13.68C118.238 13.92 118.571 14.2933 118.784 14.8C118.798 14.4933 118.804 14.2267 118.804 14C118.818 13.76 118.824 13.5933 118.824 13.5C118.824 13.38 118.938 13.32 119.164 13.32C119.351 13.32 119.544 13.3667 119.744 13.46C119.958 13.5533 120.064 13.6733 120.064 13.82V13.86ZM118.784 15.28C118.758 15.3333 118.704 15.38 118.624 15.42C118.558 15.46 118.491 15.48 118.424 15.48C118.344 15.48 118.284 15.4533 118.244 15.4C117.991 15.0133 117.698 14.7333 117.364 14.56C117.031 14.3733 116.711 14.28 116.404 14.28C115.964 14.28 115.518 14.4133 115.064 14.68C114.624 14.9333 114.218 15.2933 113.844 15.76C113.471 16.2267 113.171 16.7733 112.944 17.4C112.731 18.0133 112.624 18.68 112.624 19.4C112.624 20.4267 112.818 21.1733 113.204 21.64C113.591 22.0933 114.078 22.32 114.664 22.32C115.331 22.32 115.964 22.1067 116.564 21.68C117.178 21.2533 117.684 20.6533 118.084 19.88C118.484 19.1067 118.704 18.2067 118.744 17.18C118.758 16.98 118.764 16.7 118.764 16.34C118.764 15.9667 118.771 15.6133 118.784 15.28Z" fill="black"/>
<path d="M75.7 35.5C74.74 35.2733 73.9733 34.9333 73.4 34.48C72.8267 34.0267 72.54 33.36 72.54 32.48C72.54 31.84 72.7467 31.24 73.16 30.68C73.5733 30.12 74.1333 29.6667 74.84 29.32C75.56 28.96 76.3733 28.78 77.28 28.78C78.0267 28.78 78.7133 28.8933 79.34 29.12C79.98 29.3467 80.4933 29.6133 80.88 29.92C81.2667 30.2133 81.46 30.48 81.46 30.72C81.46 30.72 81.44 30.7933 81.4 30.94C81.3733 31.0867 81.3267 31.2333 81.26 31.38C81.1933 31.5267 81.1 31.6 80.98 31.6C80.8867 31.6 80.8 31.56 80.72 31.48C80.64 31.3867 80.5667 31.3133 80.5 31.26C80.06 30.74 79.5333 30.38 78.92 30.18C78.32 29.9667 77.7933 29.86 77.34 29.86C76.6467 29.86 76.0267 29.9933 75.48 30.26C74.9467 30.5133 74.52 30.8467 74.2 31.26C73.8933 31.66 73.74 32.08 73.74 32.52C73.74 33.0533 73.94 33.4733 74.34 33.78C74.74 34.0733 75.3667 34.3133 76.22 34.5L78.38 35.06C79.66 35.3933 80.6067 35.8933 81.22 36.56C81.8467 37.2267 82.16 38.0933 82.16 39.16C82.16 39.9333 81.96 40.6333 81.56 41.26C81.16 41.8867 80.5733 42.3867 79.8 42.76C79.04 43.1333 78.1133 43.32 77.02 43.32C75.9133 43.32 74.9533 43.1333 74.14 42.76C73.3267 42.3867 72.6067 41.8533 71.98 41.16C71.9133 41.0933 71.88 40.9933 71.88 40.86C71.88 40.6467 71.96 40.44 72.12 40.24C72.28 40.04 72.44 39.94 72.6 39.94C72.6933 39.94 72.7667 39.9867 72.82 40.08C73.14 40.6 73.4933 41.0067 73.88 41.3C74.28 41.5933 74.68 41.8067 75.08 41.94C75.48 42.0733 75.8533 42.16 76.2 42.2C76.5467 42.2267 76.8267 42.24 77.04 42.24C77.7867 42.24 78.4533 42.1067 79.04 41.84C79.64 41.5733 80.1133 41.22 80.46 40.78C80.8067 40.3267 80.98 39.84 80.98 39.32C80.98 38.4667 80.7533 37.7933 80.3 37.3C79.8467 36.7933 79.0933 36.4 78.04 36.12L75.7 35.5ZM92.1038 42.66C92.1171 42.5533 92.1238 42.3733 92.1238 42.12C92.1238 41.8667 92.1238 41.6067 92.1238 41.34C92.1371 41.06 92.1438 40.8467 92.1438 40.7V37.14C92.1438 36.6067 92.0971 36.1333 92.0038 35.72C91.9104 35.3067 91.7304 34.98 91.4638 34.74C91.2104 34.5 90.8238 34.38 90.3038 34.38C89.8371 34.38 89.3571 34.48 88.8638 34.68C88.3704 34.88 87.9238 35.1933 87.5238 35.62C87.1238 36.0333 86.8238 36.58 86.6238 37.26C86.5304 37.5933 86.4571 37.9867 86.4038 38.44C86.3638 38.8933 86.3371 39.34 86.3238 39.78C86.3238 40.2067 86.3171 40.58 86.3038 40.9V41.22C86.3038 41.54 86.3104 41.8533 86.3238 42.16C86.3371 42.4667 86.3504 42.7533 86.3638 43.02C86.3638 43.14 86.2638 43.2 86.0638 43.2C85.8904 43.2 85.6971 43.1467 85.4838 43.04C85.2838 42.9467 85.1838 42.82 85.1838 42.66C85.1838 42.5533 85.1838 42.36 85.1838 42.08C85.1971 41.8 85.2038 41.5267 85.2038 41.26C85.2171 40.98 85.2238 40.7933 85.2238 40.7V31.2C85.2238 31.0667 85.2171 30.86 85.2038 30.58C85.1904 30.3 85.1771 30.0133 85.1638 29.72C85.1638 29.4267 85.1638 29.2067 85.1638 29.06C85.1638 28.94 85.2638 28.88 85.4638 28.88C85.6504 28.88 85.8438 28.9333 86.0438 29.04C86.2438 29.1333 86.3438 29.26 86.3438 29.42C86.3438 29.5267 86.3371 29.7067 86.3238 29.96C86.3238 30.2133 86.3171 30.48 86.3038 30.76C86.3038 31.0267 86.3038 31.24 86.3038 31.4V35.84C86.5704 35.2933 86.9238 34.84 87.3638 34.48C87.8038 34.1067 88.2771 33.8267 88.7838 33.64C89.3038 33.44 89.8104 33.34 90.3038 33.34C90.9438 33.34 91.4571 33.46 91.8438 33.7C92.2304 33.9267 92.5238 34.2267 92.7238 34.6C92.9238 34.9733 93.0571 35.38 93.1238 35.82C93.1904 36.2467 93.2238 36.66 93.2238 37.06V40.9C93.2238 40.98 93.2304 41.16 93.2438 41.44C93.2571 41.72 93.2638 42.0133 93.2638 42.32C93.2771 42.6267 93.2838 42.86 93.2838 43.02C93.2838 43.14 93.1771 43.2 92.9638 43.2C92.7904 43.2 92.6038 43.1467 92.4038 43.04C92.2038 42.9467 92.1038 42.8267 92.1038 42.68V42.66ZM97.4616 38.98V39.04C97.4616 40.1333 97.7082 40.9533 98.2016 41.5C98.7082 42.0467 99.3016 42.32 99.9816 42.32C100.848 42.32 101.635 42.1667 102.342 41.86C103.062 41.54 103.688 41.0933 104.222 40.52C104.382 40.3467 104.522 40.26 104.642 40.26C104.748 40.26 104.802 40.3267 104.802 40.46C104.802 40.58 104.702 40.7933 104.502 41.1C104.302 41.4067 104.002 41.7333 103.602 42.08C103.215 42.4133 102.715 42.7067 102.102 42.96C101.502 43.2 100.795 43.32 99.9816 43.32C99.3016 43.32 98.6882 43.1533 98.1416 42.82C97.6082 42.4733 97.1816 41.9867 96.8616 41.36C96.5416 40.72 96.3816 39.9667 96.3816 39.1V38.8C96.1016 38.6133 95.9616 38.4133 95.9616 38.2C95.9616 38.04 96.0749 37.96 96.3016 37.96C96.3282 37.96 96.3682 37.96 96.4216 37.96C96.4882 37.9467 96.5216 37.94 96.5216 37.94C96.6016 37.46 96.7816 36.9533 97.0616 36.42C97.3549 35.8867 97.7216 35.3867 98.1616 34.92C98.6016 34.4533 99.1016 34.0733 99.6616 33.78C100.222 33.4733 100.828 33.32 101.482 33.32C102.295 33.32 102.942 33.46 103.422 33.74C103.902 34.02 104.242 34.38 104.442 34.82C104.655 35.26 104.762 35.72 104.762 36.2C104.762 36.5867 104.715 36.9067 104.622 37.16C104.528 37.4133 104.342 37.6333 104.062 37.82C103.795 37.9933 103.395 38.1667 102.862 38.34C102.262 38.5133 101.528 38.6667 100.662 38.8C99.7949 38.92 98.8082 38.98 97.7016 38.98H97.4616ZM98.0216 38C99.0349 38 99.8949 37.9467 100.602 37.84C101.322 37.7333 101.908 37.6133 102.362 37.48C102.775 37.36 103.068 37.2467 103.242 37.14C103.428 37.0333 103.548 36.9067 103.602 36.76C103.655 36.6133 103.682 36.42 103.682 36.18C103.682 35.5933 103.488 35.1333 103.102 34.8C102.715 34.4533 102.168 34.28 101.462 34.28C100.968 34.28 100.502 34.4067 100.062 34.66C99.6216 34.9 99.2282 35.2133 98.8816 35.6C98.5482 35.9867 98.2682 36.3933 98.0416 36.82C97.8149 37.2467 97.6682 37.64 97.6016 38H98.0216ZM109.861 38.08C109.128 37.9067 108.574 37.6533 108.201 37.32C107.841 36.9733 107.661 36.4933 107.661 35.88C107.661 35.3733 107.828 34.9267 108.161 34.54C108.494 34.1533 108.934 33.8533 109.481 33.64C110.028 33.4267 110.628 33.32 111.281 33.32C112.041 33.32 112.694 33.44 113.241 33.68C113.788 33.92 114.194 34.2133 114.461 34.56C114.501 34.6 114.521 34.6667 114.521 34.76C114.521 35 114.448 35.1867 114.301 35.32C114.154 35.4533 114.034 35.52 113.941 35.52C113.888 35.52 113.841 35.5 113.801 35.46C113.774 35.4067 113.734 35.3467 113.681 35.28C113.468 34.9467 113.194 34.7133 112.861 34.58C112.528 34.4333 112.214 34.3467 111.921 34.32C111.628 34.28 111.414 34.26 111.281 34.26C110.508 34.26 109.888 34.42 109.421 34.74C108.954 35.06 108.721 35.4533 108.721 35.92C108.721 36.2 108.834 36.4467 109.061 36.66C109.301 36.86 109.708 37.0267 110.281 37.16L112.201 37.62C113.054 37.82 113.728 38.1333 114.221 38.56C114.714 38.9867 114.961 39.6133 114.961 40.44C114.961 40.96 114.808 41.44 114.501 41.88C114.194 42.32 113.754 42.6733 113.181 42.94C112.621 43.1933 111.948 43.32 111.161 43.32C110.414 43.32 109.781 43.2267 109.261 43.04C108.754 42.8667 108.348 42.66 108.041 42.42C107.734 42.1667 107.514 41.9333 107.381 41.72C107.248 41.4933 107.181 41.34 107.181 41.26C107.181 41.0733 107.254 40.8933 107.401 40.72C107.561 40.5333 107.708 40.44 107.841 40.44C107.921 40.44 107.981 40.4867 108.021 40.58C108.221 41.0867 108.488 41.4667 108.821 41.72C109.154 41.9733 109.521 42.14 109.921 42.22C110.334 42.2867 110.748 42.32 111.161 42.32C111.988 42.32 112.648 42.1333 113.141 41.76C113.634 41.3733 113.881 40.9467 113.881 40.48C113.881 40 113.728 39.6067 113.421 39.3C113.128 38.98 112.608 38.7333 111.861 38.56L109.861 38.08ZM122.476 41.22C122.636 41.1133 122.763 41.06 122.856 41.06C122.976 41.06 123.036 41.12 123.036 41.24C123.036 41.3467 122.956 41.5133 122.796 41.74C122.636 41.9667 122.423 42.2 122.156 42.44C121.903 42.68 121.616 42.8867 121.296 43.06C120.976 43.2333 120.65 43.32 120.316 43.32C119.623 43.32 119.156 43.1133 118.916 42.7C118.676 42.2733 118.556 41.64 118.556 40.8V34.36H118.476C118.183 34.3733 117.896 34.3933 117.616 34.42C117.336 34.4333 117.196 34.44 117.196 34.44C117.023 34.44 116.876 34.3533 116.756 34.18C116.636 33.9933 116.576 33.8333 116.576 33.7C116.576 33.5667 116.643 33.5 116.776 33.5H118.556V32.44C118.556 32.3067 118.55 32.1 118.536 31.82C118.536 31.54 118.53 31.2533 118.516 30.96C118.516 30.6667 118.516 30.4467 118.516 30.3C118.516 30.18 118.616 30.12 118.816 30.12C118.99 30.12 119.176 30.1733 119.376 30.28C119.576 30.3733 119.676 30.5 119.676 30.66C119.676 30.7667 119.67 30.9333 119.656 31.16C119.656 31.3733 119.65 31.6 119.636 31.84C119.636 32.08 119.636 32.28 119.636 32.44V33.44L120.236 33.42C120.476 33.4067 120.756 33.3867 121.076 33.36C121.396 33.3333 121.623 33.3133 121.756 33.3H121.776C121.936 33.3 122.076 33.3867 122.196 33.56C122.316 33.72 122.376 33.8733 122.376 34.02C122.376 34.18 122.31 34.26 122.176 34.26C122.043 34.26 121.79 34.26 121.416 34.26C121.043 34.26 120.723 34.2667 120.456 34.28L119.636 34.32V40.84C119.636 41.4 119.69 41.7733 119.796 41.96C119.903 42.1467 120.103 42.24 120.396 42.24C120.676 42.24 120.99 42.1533 121.336 41.98C121.683 41.8067 122.03 41.58 122.376 41.3L122.476 41.22ZM133.103 33.86C133.063 34.1533 133.023 34.5467 132.983 35.04C132.957 35.52 132.93 36.0333 132.903 36.58C132.89 37.1133 132.877 37.6133 132.863 38.08C132.85 38.5467 132.843 38.9 132.843 39.14C132.843 39.3133 132.85 39.5867 132.863 39.96C132.89 40.32 132.95 40.7133 133.043 41.14C133.15 41.5667 133.317 41.96 133.543 42.32C133.57 42.3733 133.583 42.42 133.583 42.46C133.583 42.6067 133.51 42.7733 133.363 42.96C133.23 43.1333 133.07 43.22 132.883 43.22C132.75 43.22 132.617 43.1267 132.483 42.94C132.363 42.74 132.25 42.4933 132.143 42.2C132.05 41.8933 131.97 41.5867 131.903 41.28C131.837 40.9733 131.797 40.7067 131.783 40.48C131.303 41.4533 130.69 42.1733 129.943 42.64C129.21 43.0933 128.463 43.32 127.703 43.32C126.743 43.32 125.97 43 125.383 42.36C124.81 41.7067 124.523 40.7533 124.523 39.5C124.523 38.66 124.663 37.8667 124.943 37.12C125.237 36.3733 125.617 35.7133 126.083 35.14C126.563 34.5667 127.09 34.12 127.663 33.8C128.25 33.48 128.837 33.32 129.423 33.32C129.917 33.32 130.383 33.44 130.823 33.68C131.277 33.92 131.61 34.2933 131.823 34.8C131.837 34.4933 131.843 34.2267 131.843 34C131.857 33.76 131.863 33.5933 131.863 33.5C131.863 33.38 131.977 33.32 132.203 33.32C132.39 33.32 132.583 33.3667 132.783 33.46C132.997 33.5533 133.103 33.6733 133.103 33.82V33.86ZM131.823 35.28C131.797 35.3333 131.743 35.38 131.663 35.42C131.597 35.46 131.53 35.48 131.463 35.48C131.383 35.48 131.323 35.4533 131.283 35.4C131.03 35.0133 130.737 34.7333 130.403 34.56C130.07 34.3733 129.75 34.28 129.443 34.28C129.003 34.28 128.557 34.4133 128.103 34.68C127.663 34.9333 127.257 35.2933 126.883 35.76C126.51 36.2267 126.21 36.7733 125.983 37.4C125.77 38.0133 125.663 38.68 125.663 39.4C125.663 40.4267 125.857 41.1733 126.243 41.64C126.63 42.0933 127.117 42.32 127.703 42.32C128.37 42.32 129.003 42.1067 129.603 41.68C130.217 41.2533 130.723 40.6533 131.123 39.88C131.523 39.1067 131.743 38.2067 131.783 37.18C131.797 36.98 131.803 36.7 131.803 36.34C131.803 35.9667 131.81 35.6133 131.823 35.28ZM136.747 31.2C136.747 31.0667 136.741 30.86 136.727 30.58C136.714 30.3 136.701 30.0133 136.687 29.72C136.687 29.4267 136.687 29.2067 136.687 29.06C136.687 28.94 136.787 28.88 136.987 28.88C137.174 28.88 137.367 28.9333 137.567 29.04C137.767 29.1333 137.867 29.26 137.867 29.42C137.867 29.5267 137.861 29.6933 137.847 29.92C137.847 30.1333 137.841 30.36 137.827 30.6C137.827 30.84 137.827 31.04 137.827 31.2V36.98L141.767 34.22C141.941 34.1 142.107 33.9667 142.267 33.82C142.441 33.66 142.567 33.54 142.647 33.46C142.727 33.38 142.847 33.34 143.007 33.34C143.221 33.34 143.441 33.3933 143.667 33.5C143.894 33.6067 144.007 33.72 144.007 33.84C144.007 33.8933 143.974 33.94 143.907 33.98C143.627 34.1667 143.361 34.3467 143.107 34.52C142.854 34.68 142.641 34.82 142.467 34.94L139.387 37.12C139.774 37.4933 140.227 37.96 140.747 38.52C141.267 39.0667 141.794 39.62 142.327 40.18C142.874 40.74 143.361 41.2333 143.787 41.66C144.121 41.9933 144.507 42.2533 144.947 42.44C145.027 42.48 145.067 42.5333 145.067 42.6C145.067 42.7333 144.961 42.8733 144.747 43.02C144.547 43.18 144.354 43.26 144.167 43.26C144.087 43.26 144.027 43.24 143.987 43.2C143.814 43.0667 143.634 42.92 143.447 42.76C143.261 42.6 143.094 42.4467 142.947 42.3C142.681 42.02 142.354 41.68 141.967 41.28C141.594 40.8667 141.194 40.44 140.767 40C140.354 39.56 139.947 39.14 139.547 38.74C139.161 38.34 138.821 38 138.527 37.72L137.827 38.18V40.88C137.827 40.96 137.834 41.14 137.847 41.42C137.861 41.7 137.867 41.9933 137.867 42.3C137.881 42.6067 137.887 42.84 137.887 43C137.887 43.12 137.787 43.18 137.587 43.18C137.414 43.18 137.221 43.1267 137.007 43.02C136.807 42.9267 136.707 42.8 136.707 42.64C136.707 42.5333 136.707 42.36 136.707 42.12C136.721 41.8667 136.727 41.62 136.727 41.38C136.741 41.14 136.747 40.9733 136.747 40.88V31.2ZM148.923 34.16C149.189 33.96 149.509 33.7733 149.883 33.6C150.269 33.4133 150.743 33.32 151.303 33.32C152.436 33.32 153.356 33.74 154.063 34.58C154.783 35.42 155.143 36.5933 155.143 38.1C155.143 38.74 155.036 39.3667 154.823 39.98C154.623 40.5933 154.323 41.1533 153.923 41.66C153.523 42.1667 153.029 42.5733 152.443 42.88C151.856 43.1733 151.176 43.32 150.403 43.32C149.069 43.32 148.036 42.92 147.303 42.12C146.583 41.32 146.223 40.2333 146.223 38.86C146.223 38.26 146.316 37.6733 146.503 37.1C146.703 36.5133 146.936 35.9867 147.203 35.52C147.483 35.04 147.749 34.66 148.002 34.38C148.269 34.1 148.469 33.96 148.603 33.96C148.749 33.96 148.856 34.0267 148.923 34.16ZM150.403 42.3C151.056 42.3 151.656 42.1133 152.203 41.74C152.763 41.3533 153.209 40.8467 153.543 40.22C153.876 39.58 154.043 38.8733 154.043 38.1C154.043 36.98 153.796 36.0733 153.303 35.38C152.809 34.6733 152.103 34.32 151.183 34.32C150.623 34.32 150.103 34.4533 149.623 34.72C149.156 34.9867 148.749 35.3467 148.403 35.8C148.069 36.24 147.803 36.7267 147.603 37.26C147.416 37.7933 147.323 38.32 147.323 38.84C147.323 39.9467 147.596 40.8 148.143 41.4C148.689 42 149.443 42.3 150.403 42.3ZM163.813 34.92C163.906 34.6933 163.993 34.4667 164.073 34.24C164.166 34 164.246 33.7533 164.313 33.5C164.353 33.38 164.473 33.32 164.673 33.32C164.86 33.32 165.053 33.3733 165.253 33.48C165.453 33.5733 165.553 33.6933 165.553 33.84C165.553 33.8667 165.54 33.9067 165.513 33.96C165.42 34.1333 165.306 34.3533 165.173 34.62C165.04 34.8733 164.94 35.0867 164.873 35.26L162.153 41.68C162.073 41.8667 161.993 42.0667 161.913 42.28C161.846 42.48 161.78 42.68 161.713 42.88C161.673 43.04 161.613 43.1467 161.533 43.2C161.453 43.2667 161.36 43.3 161.253 43.3C161.12 43.3 160.986 43.26 160.853 43.18C160.72 43.1133 160.613 43.04 160.533 42.96C160.44 42.8533 160.373 42.74 160.333 42.62C160.293 42.5 160.22 42.3133 160.113 42.06L157.553 35.2C157.473 34.9733 157.38 34.7533 157.273 34.54C157.166 34.3133 157.053 34.0733 156.933 33.82C156.92 33.7933 156.913 33.76 156.913 33.72C156.913 33.6133 156.98 33.5333 157.113 33.48C157.26 33.4267 157.413 33.4 157.573 33.4C157.72 33.4 157.86 33.42 157.993 33.46C158.126 33.5 158.206 33.5733 158.233 33.68C158.273 33.8267 158.333 34.02 158.413 34.26C158.493 34.4867 158.566 34.7067 158.633 34.92L161.033 41.66L163.813 34.92ZM175.838 33.86C175.798 34.1533 175.758 34.5467 175.718 35.04C175.691 35.52 175.664 36.0333 175.638 36.58C175.624 37.1133 175.611 37.6133 175.598 38.08C175.584 38.5467 175.578 38.9 175.578 39.14C175.578 39.3133 175.584 39.5867 175.598 39.96C175.624 40.32 175.684 40.7133 175.778 41.14C175.884 41.5667 176.051 41.96 176.278 42.32C176.304 42.3733 176.318 42.42 176.318 42.46C176.318 42.6067 176.244 42.7733 176.098 42.96C175.964 43.1333 175.804 43.22 175.618 43.22C175.484 43.22 175.351 43.1267 175.218 42.94C175.098 42.74 174.984 42.4933 174.878 42.2C174.784 41.8933 174.704 41.5867 174.638 41.28C174.571 40.9733 174.531 40.7067 174.518 40.48C174.038 41.4533 173.424 42.1733 172.678 42.64C171.944 43.0933 171.198 43.32 170.438 43.32C169.478 43.32 168.704 43 168.118 42.36C167.544 41.7067 167.258 40.7533 167.258 39.5C167.258 38.66 167.398 37.8667 167.678 37.12C167.971 36.3733 168.351 35.7133 168.818 35.14C169.298 34.5667 169.824 34.12 170.398 33.8C170.984 33.48 171.571 33.32 172.158 33.32C172.651 33.32 173.118 33.44 173.558 33.68C174.011 33.92 174.344 34.2933 174.558 34.8C174.571 34.4933 174.578 34.2267 174.578 34C174.591 33.76 174.598 33.5933 174.598 33.5C174.598 33.38 174.711 33.32 174.938 33.32C175.124 33.32 175.318 33.3667 175.518 33.46C175.731 33.5533 175.838 33.6733 175.838 33.82V33.86ZM174.558 35.28C174.531 35.3333 174.478 35.38 174.398 35.42C174.331 35.46 174.264 35.48 174.198 35.48C174.118 35.48 174.058 35.4533 174.018 35.4C173.764 35.0133 173.471 34.7333 173.138 34.56C172.804 34.3733 172.484 34.28 172.178 34.28C171.738 34.28 171.291 34.4133 170.838 34.68C170.398 34.9333 169.991 35.2933 169.618 35.76C169.244 36.2267 168.944 36.7733 168.718 37.4C168.504 38.0133 168.398 38.68 168.398 39.4C168.398 40.4267 168.591 41.1733 168.978 41.64C169.364 42.0933 169.851 42.32 170.438 42.32C171.104 42.32 171.738 42.1067 172.338 41.68C172.951 41.2533 173.458 40.6533 173.858 39.88C174.258 39.1067 174.478 38.2067 174.518 37.18C174.531 36.98 174.538 36.7 174.538 36.34C174.538 35.9667 174.544 35.6133 174.558 35.28Z" fill="black"/>
</svg>
